HIERARCHY
ROOT mixamorig:Hips
{
	OFFSET -0.000008 104.274872 1.554316
	CHANNELS 6 Xposition Yposition Zposition Xrotation Yrotation Zrotation
	JOINT mixamorig:Spine
	{
		OFFSET -0.000005 10.181595 0.131519
		CHANNELS 6 Xposition Yposition Zposition Xrotation Yrotation Zrotation
		JOINT mixamorig:Spine1
		{
			OFFSET -0.000000 9.893959 -1.470707
			CHANNELS 6 Xposition Yposition Zposition Xrotation Yrotation Zrotation
			JOINT mixamorig:Spine2
			{
				OFFSET -0.000000 9.220757 -1.370641
				CHANNELS 6 Xposition Yposition Zposition Xrotation Yrotation Zrotation
				JOINT mixamorig:Neck
				{
					OFFSET 0.000001 16.740417 -2.049036
					CHANNELS 6 Xposition Yposition Zposition Xrotation Yrotation Zrotation
					JOINT mixamorig:Head
					{
						OFFSET 0.000000 9.617874 1.685006
						CHANNELS 6 Xposition Yposition Zposition Xrotation Yrotation Zrotation
						JOINT mixamorig:HeadTop_End
						{
							OFFSET 0.000002 22.037354 7.501101
							CHANNELS 6 Xposition Yposition Zposition Xrotation Yrotation Zrotation
							End Site
							{
								OFFSET 0.000168 2310.654297 -282.823242
							}
						}
					}
				}
				JOINT mixamorig:RightShoulder
				{
					OFFSET -4.569970 11.014908 -2.160885
					CHANNELS 6 Xposition Yposition Zposition Xrotation Yrotation Zrotation
					JOINT mixamorig:RightArm
					{
						OFFSET -10.592851 -0.524811 -2.232101
						CHANNELS 6 Xposition Yposition Zposition Xrotation Yrotation Zrotation
						JOINT mixamorig:RightForeArm
						{
							OFFSET -27.841511 0.000031 -0.000004
							CHANNELS 6 Xposition Yposition Zposition Xrotation Yrotation Zrotation
							JOINT mixamorig:RightHand
							{
								OFFSET -28.328831 -0.000015 0.000015
								CHANNELS 6 Xposition Yposition Zposition Xrotation Yrotation Zrotation
								JOINT mixamorig:RightHandThumb1
								{
									OFFSET -2.464806 -1.573990 2.681852
									CHANNELS 6 Xposition Yposition Zposition Xrotation Yrotation Zrotation
									JOINT mixamorig:RightHandThumb2
									{
										OFFSET -3.215179 -1.872803 1.924282
										CHANNELS 6 Xposition Yposition Zposition Xrotation Yrotation Zrotation
										JOINT mixamorig:RightHandThumb3
										{
											OFFSET -2.654831 -1.527969 1.512609
											CHANNELS 6 Xposition Yposition Zposition Xrotation Yrotation Zrotation
											JOINT mixamorig:RightHandThumb4
											{
												OFFSET -2.018814 -1.152008 1.108052
												CHANNELS 6 Xposition Yposition Zposition Xrotation Yrotation Zrotation
												End Site
												{
													OFFSET -188.809540 -114.533607 132.431396
												}
											}
										}
									}
								}
								JOINT mixamorig:RightHandIndex1
								{
									OFFSET -9.108284 -0.517868 2.259835
									CHANNELS 6 Xposition Yposition Zposition Xrotation Yrotation Zrotation
									JOINT mixamorig:RightHandIndex2
									{
										OFFSET -3.699989 0.000000 0.001215
										CHANNELS 6 Xposition Yposition Zposition Xrotation Yrotation Zrotation
										JOINT mixamorig:RightHandIndex3
										{
											OFFSET -2.850006 0.000031 -0.000522
											CHANNELS 6 Xposition Yposition Zposition Xrotation Yrotation Zrotation
											JOINT mixamorig:RightHandIndex4
											{
												OFFSET -2.772186 -0.000015 -0.000020
												CHANNELS 6 Xposition Yposition Zposition Xrotation Yrotation Zrotation
												End Site
												{
													OFFSET -277.218445 0.000000 -0.050231
												}
											}
										}
									}
								}
								JOINT mixamorig:RightHandMiddle1
								{
									OFFSET -9.532516 -0.000031 -0.000023
									CHANNELS 6 Xposition Yposition Zposition Xrotation Yrotation Zrotation
									JOINT mixamorig:RightHandMiddle2
									{
										OFFSET -3.700005 -0.000015 0.003713
										CHANNELS 6 Xposition Yposition Zposition Xrotation Yrotation Zrotation
										JOINT mixamorig:RightHandMiddle3
										{
											OFFSET -2.949974 0.000015 -0.002054
											CHANNELS 6 Xposition Yposition Zposition Xrotation Yrotation Zrotation
											JOINT mixamorig:RightHandMiddle4
											{
												OFFSET -2.946640 0.000000 -0.000156
												CHANNELS 6 Xposition Yposition Zposition Xrotation Yrotation Zrotation
												End Site
												{
													OFFSET -294.664337 0.000000 -0.113670
												}
											}
										}
									}
								}
								JOINT mixamorig:RightHandRing1
								{
									OFFSET -9.103600 -0.043076 -1.865134
									CHANNELS 6 Xposition Yposition Zposition Xrotation Yrotation Zrotation
									JOINT mixamorig:RightHandRing2
									{
										OFFSET -3.379288 0.000000 -0.001055
										CHANNELS 6 Xposition Yposition Zposition Xrotation Yrotation Zrotation
										JOINT mixamorig:RightHandRing3
										{
											OFFSET -2.889687 -0.000015 0.000379
											CHANNELS 6 Xposition Yposition Zposition Xrotation Yrotation Zrotation
											JOINT mixamorig:RightHandRing4
											{
												OFFSET -2.638809 -0.000015 0.000941
												CHANNELS 6 Xposition Yposition Zposition Xrotation Yrotation Zrotation
												End Site
												{
													OFFSET -263.880371 0.000000 0.516020
												}
											}
										}
									}
								}
								JOINT mixamorig:RightHandPinky1
								{
									OFFSET -8.076683 -0.486710 -3.806280
									CHANNELS 6 Xposition Yposition Zposition Xrotation Yrotation Zrotation
									JOINT mixamorig:RightHandPinky2
									{
										OFFSET -3.600014 -0.000015 -0.003747
										CHANNELS 6 Xposition Yposition Zposition Xrotation Yrotation Zrotation
										JOINT mixamorig:RightHandPinky3
										{
											OFFSET -2.099983 0.000000 -0.005739
											CHANNELS 6 Xposition Yposition Zposition Xrotation Yrotation Zrotation
											JOINT mixamorig:RightHandPinky4
											{
												OFFSET -2.115768 -0.000031 -0.003680
												CHANNELS 6 Xposition Yposition Zposition Xrotation Yrotation Zrotation
												End Site
												{
													OFFSET -211.577087 0.000000 -0.350686
												}
											}
										}
									}
								}
							}
						}
					}
				}
				JOINT mixamorig:LeftShoulder
				{
					OFFSET 4.570447 11.014725 -2.160855
					CHANNELS 6 Xposition Yposition Zposition Xrotation Yrotation Zrotation
					JOINT mixamorig:LeftArm
					{
						OFFSET 10.592371 -0.524597 -2.232119
						CHANNELS 6 Xposition Yposition Zposition Xrotation Yrotation Zrotation
						JOINT mixamorig:LeftForeArm
						{
							OFFSET 27.841532 -0.000031 0.000026
							CHANNELS 6 Xposition Yposition Zposition Xrotation Yrotation Zrotation
							JOINT mixamorig:LeftHand
							{
								OFFSET 28.328846 -0.000061 0.000022
								CHANNELS 6 Xposition Yposition Zposition Xrotation Yrotation Zrotation
								JOINT mixamorig:LeftHandThumb1
								{
									OFFSET 2.466141 -1.576172 2.681732
									CHANNELS 6 Xposition Yposition Zposition Xrotation Yrotation Zrotation
									JOINT mixamorig:LeftHandThumb2
									{
										OFFSET 3.217812 -1.872070 1.916482
										CHANNELS 6 Xposition Yposition Zposition Xrotation Yrotation Zrotation
										JOINT mixamorig:LeftHandThumb3
										{
											OFFSET 2.656029 -1.528778 1.514513
											CHANNELS 6 Xposition Yposition Zposition Xrotation Yrotation Zrotation
											JOINT mixamorig:LeftHandThumb4
											{
												OFFSET 2.020889 -1.154053 1.115139
												CHANNELS 6 Xposition Yposition Zposition Xrotation Yrotation Zrotation
												End Site
												{
													OFFSET 190.885437 -115.081749 130.048782
												}
											}
										}
									}
								}
								JOINT mixamorig:LeftHandIndex1
								{
									OFFSET 9.109314 -0.518021 2.259871
									CHANNELS 6 Xposition Yposition Zposition Xrotation Yrotation Zrotation
									JOINT mixamorig:LeftHandIndex2
									{
										OFFSET 3.699989 0.000000 -0.000322
										CHANNELS 6 Xposition Yposition Zposition Xrotation Yrotation Zrotation
										JOINT mixamorig:LeftHandIndex3
										{
											OFFSET 2.850006 0.000000 0.000352
											CHANNELS 6 Xposition Yposition Zposition Xrotation Yrotation Zrotation
											JOINT mixamorig:LeftHandIndex4
											{
												OFFSET 2.774864 -0.000031 -0.000027
												CHANNELS 6 Xposition Yposition Zposition Xrotation Yrotation Zrotation
												End Site
												{
													OFFSET 277.486267 0.000000 -0.009857
												}
											}
										}
									}
								}
								JOINT mixamorig:LeftHandMiddle1
								{
									OFFSET 9.533394 0.000061 0.000044
									CHANNELS 6 Xposition Yposition Zposition Xrotation Yrotation Zrotation
									JOINT mixamorig:LeftHandMiddle2
									{
										OFFSET 3.699989 -0.000015 -0.000231
										CHANNELS 6 Xposition Yposition Zposition Xrotation Yrotation Zrotation
										JOINT mixamorig:LeftHandMiddle3
										{
											OFFSET 2.949997 -0.000015 -0.000059
											CHANNELS 6 Xposition Yposition Zposition Xrotation Yrotation Zrotation
											JOINT mixamorig:LeftHandMiddle4
											{
												OFFSET 2.952896 0.000031 0.000063
												CHANNELS 6 Xposition Yposition Zposition Xrotation Yrotation Zrotation
												End Site
												{
													OFFSET 295.289337 0.000000 0.022810
												}
											}
										}
									}
								}
								JOINT mixamorig:LeftHandRing1
								{
									OFFSET 9.104523 -0.042999 -1.865074
									CHANNELS 6 Xposition Yposition Zposition Xrotation Yrotation Zrotation
									JOINT mixamorig:LeftHandRing2
									{
										OFFSET 3.150009 -0.000031 0.000043
										CHANNELS 6 Xposition Yposition Zposition Xrotation Yrotation Zrotation
										JOINT mixamorig:LeftHandRing3
										{
											OFFSET 2.949982 -0.000015 0.000040
											CHANNELS 6 Xposition Yposition Zposition Xrotation Yrotation Zrotation
											JOINT mixamorig:LeftHandRing4
											{
												OFFSET 2.644348 0.000000 0.000057
												CHANNELS 6 Xposition Yposition Zposition Xrotation Yrotation Zrotation
												End Site
												{
													OFFSET 264.434631 0.000000 0.012105
												}
											}
										}
									}
								}
								JOINT mixamorig:LeftHandPinky1
								{
									OFFSET 8.077789 -0.486847 -3.806259
									CHANNELS 6 Xposition Yposition Zposition Xrotation Yrotation Zrotation
									JOINT mixamorig:LeftHandPinky2
									{
										OFFSET 3.599953 0.000031 0.014727
										CHANNELS 6 Xposition Yposition Zposition Xrotation Yrotation Zrotation
										JOINT mixamorig:LeftHandPinky3
										{
											OFFSET 2.100021 0.000015 0.007705
											CHANNELS 6 Xposition Yposition Zposition Xrotation Yrotation Zrotation
											JOINT mixamorig:LeftHandPinky4
											{
												OFFSET 2.125504 0.000031 0.007517
												CHANNELS 6 Xposition Yposition Zposition Xrotation Yrotation Zrotation
												End Site
												{
													OFFSET 212.550781 0.000000 0.625752
												}
											}
										}
									}
								}
							}
						}
					}
				}
			}
		}
	}
	JOINT mixamorig:RightUpLeg
	{
		OFFSET -8.207787 -6.751648 -1.599560
		CHANNELS 6 Xposition Yposition Zposition Xrotation Yrotation Zrotation
		JOINT mixamorig:RightLeg
		{
			OFFSET -0.000002 -44.370117 0.345942
			CHANNELS 6 Xposition Yposition Zposition Xrotation Yrotation Zrotation
			JOINT mixamorig:RightFoot
			{
				OFFSET 0.000003 -44.423679 -3.043532
				CHANNELS 6 Xposition Yposition Zposition Xrotation Yrotation Zrotation
				JOINT mixamorig:RightToeBase
				{
					OFFSET -0.000002 -8.728671 10.710558
					CHANNELS 6 Xposition Yposition Zposition Xrotation Yrotation Zrotation
					JOINT mixamorig:RightToe_End
					{
						OFFSET -0.000001 -0.000679 9.278119
						CHANNELS 6 Xposition Yposition Zposition Xrotation Yrotation Zrotation
						End Site
						{
							OFFSET 0.000000 -0.067690 927.812134
						}
					}
				}
			}
		}
	}
	JOINT mixamorig:LeftUpLeg
	{
		OFFSET 8.207793 -6.751686 -1.599556
		CHANNELS 6 Xposition Yposition Zposition Xrotation Yrotation Zrotation
		JOINT mixamorig:LeftLeg
		{
			OFFSET -0.000004 -44.370014 0.346954
			CHANNELS 6 Xposition Yposition Zposition Xrotation Yrotation Zrotation
			JOINT mixamorig:LeftFoot
			{
				OFFSET -0.000001 -44.423672 -3.044401
				CHANNELS 6 Xposition Yposition Zposition Xrotation Yrotation Zrotation
				JOINT mixamorig:LeftToeBase
				{
					OFFSET -0.000002 -8.728669 10.710558
					CHANNELS 6 Xposition Yposition Zposition Xrotation Yrotation Zrotation
					JOINT mixamorig:LeftToe_End
					{
						OFFSET -0.000003 -0.000679 9.278133
						CHANNELS 6 Xposition Yposition Zposition Xrotation Yrotation Zrotation
						End Site
						{
							OFFSET 0.000000 -0.068021 927.813477
						}
					}
				}
			}
		}
	}
}
MOTION
Frames: 3
Frame Time: 0.033333
0.000006 104.270477 1.554256 0.000010 0.000003 -0.000113 -0.000005 10.181587 0.131522 0.000001 -0.000003 0.000084 -0.000000 9.893967 -1.470711 0.000001 0.000000 -0.000000 -0.000000 9.220802 -1.370642 0.000000 -0.000000 -0.000000 0.000001 16.740433 -2.049030 0.000000 -0.000000 -0.000000 0.000000 9.617859 1.685014 0.000000 0.000000 0.000000 0.000002 22.037384 7.501101 0.000000 -0.000000 0.000000 -4.569968 11.014880 -2.160881 0.000008 0.000001 -0.000038 -10.592783 -0.524840 -2.231741 67.721203 66.862457 -47.782009 -27.841488 0.000003 0.000586 13.721339 101.787318 -16.839188 -28.328836 0.000008 0.000033 -0.000322 -0.000044 0.000007 -2.464560 -1.574208 2.682146 83.130615 -134.756914 136.662646 -3.214793 -1.872980 1.924663 206.486905 -54.374924 -97.858941 -2.654413 -1.528014 1.513107 159.434346 -37.878897 -150.083312 -2.018826 -1.151986 1.108069 -0.000002 0.000000 0.000002 -9.108349 -0.517784 2.260380 156.911083 16.265689 -70.166615 -3.700155 0.000017 0.001459 -3.186679 49.726533 1.486333 -2.850106 -0.000023 -0.000430 -17.024069 19.334309 2.920855 -2.772153 0.000003 -0.000017 0.000001 -0.000003 0.000002 -9.532572 0.000108 0.000505 150.703807 13.048605 -47.801332 -3.700131 -0.000012 0.003860 -6.509600 32.297188 1.905760 -2.950065 -0.000062 -0.001986 -14.610316 14.037010 1.808375 -2.946617 0.000000 -0.000157 0.000003 -0.000000 -0.000000 -9.103677 -0.042881 -1.864631 142.413747 14.049543 -39.682702 -3.379299 -0.000086 -0.000997 -16.588892 7.199033 1.052082 -2.889717 -0.000069 0.000410 -21.133229 0.322516 0.067668 -2.638814 -0.000015 0.000952 0.000000 0.000002 0.000002 -8.076726 -0.486423 -3.805822 130.608448 9.781271 -20.772502 -3.599929 -0.000165 -0.003729 -19.976329 -13.436876 -2.469394 -2.099909 -0.000111 -0.005754 -23.427342 -13.925024 -2.967300 -2.115768 -0.000027 -0.003676 -0.000000 -0.000000 -0.000003 4.570446 11.014691 -2.160851 -0.000018 0.000010 -0.000021 10.592510 -0.524584 -2.232351 38.414958 -80.257134 32.731233 27.841728 -0.000091 -0.000087 65.152362 -107.360759 81.993682 28.328833 -0.000028 0.000023 0.000019 -0.000089 -0.000000 2.466095 -1.576195 2.681860 208.044311 64.494867 -259.101150 3.217814 -1.871997 1.916523 -96.091780 44.517329 43.738943 2.656043 -1.528749 1.514609 -99.026480 31.802286 41.299063 2.020895 -1.154065 1.115149 -0.000002 -0.000001 0.000004 9.109255 -0.517746 2.260102 -117.346543 -11.901984 -19.424785 3.699937 0.000275 -0.000082 -121.339267 -11.940050 -21.104542 2.849932 0.000303 0.000589 -120.584845 -11.392345 -19.830995 2.774881 -0.000029 -0.000021 -0.000001 0.000001 -0.000000 9.533195 0.000374 0.000231 -150.297561 -18.628665 -63.469622 3.700166 0.000151 -0.000208 -195.179226 -11.924423 76.160325 2.950072 0.000305 -0.000105 -216.424584 -5.764360 17.408089 2.952882 -0.000031 0.000080 -0.000000 0.000002 -0.000000 9.104336 -0.042716 -1.864904 -148.461128 -18.209831 -59.152266 3.150054 0.000384 0.000054 -196.699777 -1.952152 13.253968 2.949907 0.000395 -0.000076 -225.282861 8.778314 -20.850964 2.644346 0.000031 0.000056 -0.000004 0.000001 -0.000002 8.077638 -0.486528 -3.806065 -143.607719 -14.194057 -42.188313 3.599777 0.000465 0.014776 -181.971047 1.044947 -43.765858 2.099861 0.000407 0.007619 -215.016882 9.739013 -29.381561 2.125508 -0.000036 0.007509 -0.000000 0.000002 0.000001 -8.207786 -6.751667 -1.599560 -0.077001 -0.000003 0.000080 -0.000002 -44.370110 0.345938 0.153719 -0.000000 -0.000000 0.000000 -44.423679 -3.043532 -0.076700 0.000000 -0.000002 -0.000006 -8.728667 10.710559 -0.000009 -0.000000 -0.000000 -0.000001 -0.000679 9.278123 0.000000 -0.000000 -0.000000 8.207792 -6.751710 -1.599556 -0.074518 -0.000003 0.000081 -0.000002 -44.370014 0.346960 0.148822 0.000002 0.000000 -0.000001 -44.423664 -3.044403 -0.074314 0.000000 -0.000002 -0.000004 -8.728671 10.710558 0.000007 -0.000000 -0.000000 0.000000 -0.000680 9.278137 -0.000000 0.000000 -0.000001 
0.000006 104.270477 1.554256 0.000010 0.000003 -0.000113 -0.000005 10.181587 0.131522 0.000001 -0.000003 0.000084 -0.000000 9.893967 -1.470711 0.000001 0.000000 -0.000000 -0.000000 9.220802 -1.370642 0.000000 -0.000000 -0.000000 0.000001 16.740433 -2.049030 0.000000 -0.000000 -0.000000 0.000000 9.617859 1.685014 0.000000 0.000000 0.000000 0.000002 22.037384 7.501101 0.000000 -0.000000 0.000000 -4.569968 11.014880 -2.160881 0.000008 0.000001 -0.000038 -10.592773 -0.524835 -2.231730 65.381392 71.280681 -49.417959 -27.841480 0.000025 0.000593 50.620065 110.194112 -68.261136 -28.328835 0.000005 0.000027 -0.000323 -0.000045 0.000007 -2.464520 -1.574146 2.682302 28.718476 -136.215993 93.928816 -3.214910 -1.873033 1.924635 235.905035 -41.549595 -62.631059 -2.654744 -1.528281 1.512930 257.554740 -17.978060 -37.240647 -2.018810 -1.152004 1.108068 -0.000002 -0.000001 -0.000002 -9.108329 -0.517993 2.260293 256.888797 14.620083 18.391768 -3.700025 -0.000077 0.001714 -109.737323 18.782467 26.439847 -2.850060 -0.000026 0.000005 -117.050345 17.984515 28.985448 -2.772174 -0.000002 -0.000019 -0.000000 -0.000001 0.000001 -9.532486 -0.000030 0.000552 226.095340 40.394620 81.673134 -3.700136 0.000237 0.004073 107.942179 26.846059 -36.190126 -2.950077 0.000327 -0.001813 89.709535 13.026504 -12.954010 -2.946619 0.000029 -0.000159 -0.000000 0.000002 0.000000 -9.103548 -0.043067 -1.864541 170.081792 43.067051 -155.093051 -3.379306 0.000336 -0.000746 111.864715 4.934162 -7.315405 -2.889670 0.000391 0.000583 94.638097 -5.895189 6.352304 -2.638818 -0.000031 0.000951 -0.000001 -0.000000 0.000000 -8.076547 -0.486680 -3.805684 179.067589 31.082900 -176.206422 -3.599972 0.000319 -0.003421 117.734935 -2.739573 5.021258 -2.099919 0.000389 -0.005530 96.568589 -11.367427 12.916636 -2.115770 -0.000069 -0.003662 0.000002 0.000001 -0.000005 4.570446 11.014691 -2.160851 -0.000018 0.000010 -0.000021 10.592507 -0.524583 -2.232358 44.084855 -77.241223 35.848357 27.841721 -0.000090 -0.000094 63.549870 -107.367869 80.244689 28.328831 -0.000029 0.000009 0.000019 -0.000088 0.000000 2.466174 -1.576156 2.681877 217.534381 45.594412 -280.801590 3.217831 -1.872019 1.916528 -112.116838 44.101473 54.881554 2.656083 -1.528733 1.514637 -99.517543 26.421458 39.313165 2.020883 -1.154083 1.115151 0.000003 0.000003 0.000006 9.109236 -0.517767 2.260100 -117.440390 -17.383769 -28.239236 3.699898 0.000233 -0.000072 -117.365955 -17.925601 -29.079086 2.849920 0.000273 0.000605 -115.904731 -16.154555 -25.544405 2.774877 -0.000017 -0.000028 0.000000 0.000001 0.000001 9.533191 0.000146 0.000212 -159.029822 -41.315019 -127.718950 3.700058 0.000221 -0.000369 -252.346393 -13.053198 17.782179 2.950002 0.000220 -0.000231 -270.567890 1.981101 -1.959213 2.952879 -0.000032 0.000058 0.000001 0.000002 0.000001 9.104368 -0.043023 -1.864966 -173.265015 -36.619912 -159.830730 3.149978 0.000322 -0.000118 -256.160999 7.492846 -9.552461 2.949911 0.000221 -0.000187 -277.056542 20.027395 -17.739712 2.644345 0.000016 0.000068 -0.000001 0.000003 0.000001 8.077555 -0.486759 -3.806127 -167.925651 -25.607955 -129.146706 3.599870 0.000364 0.014563 -236.989259 10.997918 -19.534230 2.099890 0.000266 0.007502 -266.977478 21.536464 -22.433618 2.125494 -0.000016 0.007508 -0.000001 -0.000004 0.000001 -8.207786 -6.751667 -1.599560 -0.077001 -0.000003 0.000080 -0.000002 -44.370110 0.345938 0.153719 -0.000000 -0.000000 0.000000 -44.423679 -3.043532 -0.076700 0.000000 -0.000002 -0.000006 -8.728667 10.710559 -0.000009 -0.000000 -0.000000 -0.000001 -0.000679 9.278123 0.000000 -0.000000 -0.000000 8.207792 -6.751710 -1.599556 -0.074518 -0.000003 0.000081 -0.000002 -44.370014 0.346960 0.148822 0.000002 0.000000 -0.000001 -44.423664 -3.044403 -0.074314 0.000000 -0.000002 -0.000004 -8.728671 10.710558 0.000007 -0.000000 -0.000000 0.000000 -0.000680 9.278137 -0.000000 0.000000 -0.000001 
0.000006 104.270477 1.554256 0.000010 0.000003 -0.000113 -0.000005 10.181587 0.131522 0.000001 -0.000003 0.000084 -0.000000 9.893967 -1.470711 0.000001 0.000000 -0.000000 -0.000000 9.220802 -1.370642 0.000000 -0.000000 -0.000000 0.000001 16.740433 -2.049030 0.000000 -0.000000 -0.000000 0.000000 9.617859 1.685014 0.000000 0.000000 0.000000 0.000002 22.037384 7.501101 0.000000 -0.000000 0.000000 -4.569968 11.014880 -2.160881 0.000008 0.000001 -0.000038 -10.592753 -0.524823 -2.231718 57.616436 77.801360 -47.859258 -27.841486 0.000033 0.000583 55.078987 111.302092 -74.687716 -28.328829 0.000037 0.000026 -0.000323 -0.000044 0.000007 -2.464469 -1.574172 2.682224 40.031066 -124.004530 96.545462 -3.214917 -1.873041 1.924571 248.673637 -43.506980 -54.035040 -2.654666 -1.528260 1.512954 247.325849 -29.923564 -49.039635 -2.018834 -1.151996 1.108055 -0.000005 -0.000001 0.000002 -9.108330 -0.517936 2.260325 247.112583 18.777570 28.027695 -3.700033 -0.000032 0.001746 -117.039499 19.614348 31.512686 -2.850050 -0.000023 -0.000020 -115.306379 16.281687 25.455041 -2.772154 -0.000030 -0.000019 0.000001 -0.000002 -0.000001 -9.532356 0.000063 0.000580 196.384645 24.877168 113.590042 -3.700072 0.000325 0.004102 121.640683 10.319363 -18.203375 -2.949988 0.000376 -0.001854 93.715967 0.038552 -0.034720 -2.946617 0.000003 -0.000168 -0.000000 0.000003 -0.000000 -9.103401 -0.042951 -1.864524 189.858386 22.313706 -227.149047 -3.379196 0.000383 -0.000719 118.500162 -8.002575 13.390661 -2.889592 0.000393 0.000540 91.019176 -18.326559 18.623366 -2.638803 -0.000004 0.000933 -0.000003 -0.000001 0.000001 -8.076479 -0.486585 -3.805698 189.412361 16.691345 -238.319780 -3.599913 0.000326 -0.003375 129.593646 -10.007638 21.566286 -2.099861 0.000386 -0.005564 96.255213 -20.820657 23.294510 -2.115771 -0.000047 -0.003694 -0.000001 -0.000002 -0.000002 4.570446 11.014691 -2.160851 -0.000018 0.000010 -0.000021 10.592509 -0.524583 -2.232359 46.530561 -75.562376 36.864225 27.841730 -0.000067 -0.000087 61.463260 -107.303795 77.869279 28.328831 -0.000041 0.000023 0.000022 -0.000088 0.000000 2.466179 -1.576166 2.681874 208.957070 44.666756 -273.323188 3.217836 -1.871991 1.916521 -122.374245 41.140039 61.024311 2.656070 -1.528710 1.514623 -96.059207 18.514917 34.229080 2.020903 -1.154052 1.115136 -0.000000 -0.000000 0.000001 9.109223 -0.517768 2.260106 -121.657403 -18.828294 -33.075160 3.699878 0.000260 -0.000097 -120.370500 -18.848259 -32.320411 2.849915 0.000272 0.000583 -118.458320 -16.309529 -27.061867 2.774882 -0.000013 -0.000033 -0.000000 0.000001 -0.000001 9.533201 0.000125 0.000223 -151.347334 -47.625065 -119.891745 3.700043 0.000206 -0.000371 -265.176466 -9.723481 10.571087 2.950005 0.000196 -0.000214 -277.819638 5.705490 -4.974557 2.952858 -0.000026 0.000058 0.000003 0.000001 -0.000006 9.104429 -0.043062 -1.864976 -178.755859 -44.874449 -176.984026 3.149949 0.000284 -0.000163 -265.092783 10.680375 -11.629042 2.949876 0.000220 -0.000171 -280.554637 24.595561 -20.532602 2.644323 0.000029 0.000052 -0.000002 -0.000001 0.000001 8.077651 -0.486883 -3.806160 -178.557032 -29.754493 -172.916020 3.599873 0.000367 0.014523 -248.967990 13.342185 -18.884578 2.099889 0.000257 0.007505 -268.516511 24.601366 -25.020928 2.125504 -0.000015 0.007522 -0.000004 0.000001 0.000003 -8.207786 -6.751667 -1.599560 -0.077001 -0.000003 0.000080 -0.000002 -44.370110 0.345938 0.153719 -0.000000 -0.000000 0.000000 -44.423679 -3.043532 -0.076700 0.000000 -0.000002 -0.000006 -8.728667 10.710559 -0.000009 -0.000000 -0.000000 -0.000001 -0.000679 9.278123 0.000000 -0.000000 -0.000000 8.207792 -6.751710 -1.599556 -0.074518 -0.000003 0.000081 -0.000002 -44.370014 0.346960 0.148822 0.000002 0.000000 -0.000001 -44.423664 -3.044403 -0.074314 0.000000 -0.000002 -0.000004 -8.728671 10.710558 0.000007 -0.000000 -0.000000 0.000000 -0.000680 9.278137 -0.000000 0.000000 -0.000001 
